<svg width="18" height="18" viewBox="0 0 18 18" fill="none" xmlns="http://www.w3.org/2000/svg">
<path d="M17.3407 6.72821L11.652 1.08693C10.9479 0.39087 9.99425 0 9 0C8.00575 0 7.05207 0.39087 6.348 1.08693L0.659258 6.72821C0.449578 6.93478 0.283336 7.18056 0.170171 7.45131C0.0570054 7.72206 -0.0008328 8.01239 9.0596e-06 8.30547V15.6058C9.0596e-06 16.1975 0.237062 16.7649 0.659018 17.1833C1.08097 17.6017 1.65327 17.8368 2.25001 17.8368H15.75C16.3467 17.8368 16.919 17.6017 17.341 17.1833C17.7629 16.7649 18 16.1975 18 15.6058V8.30547C18.0008 8.01239 17.943 7.72206 17.8298 7.45131C17.7167 7.18056 17.5504 6.93478 17.3407 6.72821ZM11.25 16.3495H6.75V13.424C6.75 12.8323 6.98706 12.2648 7.40901 11.8465C7.83097 11.4281 8.40326 11.193 9 11.193C9.59674 11.193 10.169 11.4281 10.591 11.8465C11.0129 12.2648 11.25 12.8323 11.25 13.424V16.3495ZM16.5 15.6058C16.5 15.803 16.421 15.9922 16.2803 16.1317C16.1397 16.2711 15.9489 16.3495 15.75 16.3495H12.75V13.424C12.75 12.4378 12.3549 11.4921 11.6516 10.7948C10.9484 10.0975 9.99456 9.70575 9 9.70575C8.00544 9.70575 7.05161 10.0975 6.34835 10.7948C5.64509 11.4921 5.25 12.4378 5.25 13.424V16.3495H2.25001C2.05109 16.3495 1.86033 16.2711 1.71968 16.1317C1.57903 15.9922 1.50001 15.803 1.50001 15.6058V8.30547C1.5007 8.10839 1.57965 7.91951 1.71976 7.77972L7.4085 2.14067C7.83128 1.72343 8.4035 1.4892 9 1.4892C9.5965 1.4892 10.1687 1.72343 10.5915 2.14067L16.2802 7.78195C16.4198 7.92119 16.4987 8.10917 16.5 8.30547V15.6058Z" fill="#262B37"/>
</svg>
