<svg width="18" height="18" viewBox="0 0 18 18" fill="none" xmlns="http://www.w3.org/2000/svg">
<g clip-path="url(#clip0_1482_4558)">
<path d="M9.25 0C8.65326 0 8.08097 0.237053 7.65901 0.65901C7.23705 1.08097 7 1.65326 7 2.25V15.75C7 16.3467 7.23705 16.919 7.65901 17.341C8.08097 17.7629 8.65326 18 9.25 18C9.84674 18 10.419 17.7629 10.841 17.341C11.2629 16.919 11.5 16.3467 11.5 15.75V2.25C11.5 1.65326 11.2629 1.08097 10.841 0.65901C10.419 0.237053 9.84674 0 9.25 0ZM10 15.75C10 15.9489 9.92098 16.1397 9.78033 16.2803C9.63968 16.421 9.44891 16.5 9.25 16.5C9.05109 16.5 8.86032 16.421 8.71967 16.2803C8.57902 16.1397 8.5 15.9489 8.5 15.75V2.25C8.5 2.05109 8.57902 1.86032 8.71967 1.71967C8.86032 1.57902 9.05109 1.5 9.25 1.5C9.44891 1.5 9.63968 1.57902 9.78033 1.71967C9.92098 1.86032 10 2.05109 10 2.25V15.75Z" fill="#262B37"/>
<path d="M3 3.5C2.40326 3.5 1.83097 3.73705 1.40901 4.15901C0.987053 4.58097 0.75 5.15326 0.75 5.75V15.7498C0.75 16.3466 0.987053 16.9189 1.40901 17.3408C1.83097 17.7628 2.40326 17.9998 3 17.9998C3.59674 17.9998 4.16903 17.7628 4.59099 17.3408C5.01295 16.9189 5.25 16.3466 5.25 15.7498V5.75C5.25 5.15326 5.01295 4.58097 4.59099 4.15901C4.16903 3.73705 3.59674 3.5 3 3.5ZM3.75 15.7498C3.75 15.9487 3.67098 16.1395 3.53033 16.2802C3.38968 16.4208 3.19891 16.4998 3 16.4998C2.80109 16.4998 2.61032 16.4208 2.46967 16.2802C2.32902 16.1395 2.25 15.9487 2.25 15.7498V5.75C2.25 5.55109 2.32902 5.36032 2.46967 5.21967C2.61032 5.07902 2.80109 5 3 5C3.19891 5 3.38968 5.07902 3.53033 5.21967C3.67098 5.36032 3.75 5.55109 3.75 5.75V15.7498Z" fill="#262B37"/>
<path d="M15.25 8.75C14.6533 8.75 14.081 8.98705 13.659 9.40901C13.2371 9.83097 13 10.4033 13 11V15.75C13 16.3467 13.2371 16.919 13.659 17.341C14.081 17.7629 14.6533 18 15.25 18C15.8467 18 16.419 17.7629 16.841 17.341C17.2629 16.919 17.5 16.3467 17.5 15.75V11C17.5 10.4033 17.2629 9.83097 16.841 9.40901C16.419 8.98705 15.8467 8.75 15.25 8.75ZM16 15.75C16 15.9489 15.921 16.1397 15.7803 16.2803C15.6397 16.421 15.4489 16.5 15.25 16.5C15.0511 16.5 14.8603 16.421 14.7197 16.2803C14.579 16.1397 14.5 15.9489 14.5 15.75V11C14.5 10.8011 14.579 10.6103 14.7197 10.4697C14.8603 10.329 15.0511 10.25 15.25 10.25C15.4489 10.25 15.6397 10.329 15.7803 10.4697C15.921 10.6103 16 10.8011 16 11V15.75Z" fill="#262B37"/>
</g>
<defs>
<clipPath id="clip0_1482_4558">
<rect width="18" height="18" fill="white"/>
</clipPath>
</defs>
</svg>
