<svg width="20" height="20" viewBox="0 0 20 20" fill="none" xmlns="http://www.w3.org/2000/svg">
<path fill-rule="evenodd" clip-rule="evenodd" d="M10.0007 19.1667C15.0633 19.1667 19.1673 15.0626 19.1673 9.99999C19.1673 4.93738 15.0633 0.833328 10.0007 0.833328C4.93804 0.833328 0.833984 4.93738 0.833984 9.99999C0.833984 15.0626 4.93804 19.1667 10.0007 19.1667ZM12.7897 9.75634C12.2167 11.2236 11.1735 12.2058 10.0013 12.2058C8.82925 12.2058 7.78623 11.2238 7.21309 9.75695C6.85638 9.61171 6.51677 9.16895 6.36182 8.59069C6.16047 7.83923 6.20061 7.16833 6.75023 6.96027C6.80356 4.34531 7.83555 3.33333 10.0013 3.33333C12.1672 3.33333 13.1992 4.34544 13.2524 6.9608C13.8007 7.16943 13.8406 7.83986 13.6395 8.59072C13.4847 9.16814 13.1459 9.61045 12.7897 9.75634ZM15.0788 14.4911C15.5052 14.732 15.5426 15.3067 15.167 15.6209C13.8563 16.7175 12.1188 17.5 10.0007 17.5C7.8825 17.5 6.145 16.7175 4.83428 15.6209C4.45867 15.3067 4.49612 14.732 4.92249 14.4911C6.3533 13.6827 8.27163 13.3333 10.0007 13.3333C11.7297 13.3333 13.648 13.6827 15.0788 14.4911Z" fill="#8f8f8f"/>
</svg>
