<svg width="14" height="19" viewBox="0 0 14 19" fill="none" xmlns="http://www.w3.org/2000/svg">
<g clip-path="url(#clip0_1482_4564)">
<path d="M7.00002 9.1C7.90762 9.1 8.79483 8.83315 9.54947 8.33319C10.3041 7.83323 10.8923 7.12261 11.2396 6.29121C11.5869 5.45981 11.6778 4.54495 11.5007 3.66234C11.3237 2.77973 10.8866 1.96899 10.2449 1.33267C9.60309 0.696337 8.78543 0.262992 7.89527 0.087429C7.00511 -0.0881337 6.08244 0.00197145 5.24393 0.34635C4.40542 0.690729 3.68873 1.27391 3.1845 2.02216C2.68027 2.7704 2.41113 3.6501 2.41113 4.55C2.41235 5.75637 2.89621 6.91298 3.75653 7.76601C4.61685 8.61904 5.78335 9.0988 7.00002 9.1ZM7.00002 1.51667C7.60509 1.51667 8.19656 1.69457 8.69965 2.02788C9.20275 2.36118 9.59486 2.83493 9.82641 3.3892C10.058 3.94346 10.1185 4.55337 10.0005 5.14178C9.88246 5.73018 9.59109 6.27067 9.16324 6.69489C8.7354 7.11911 8.19029 7.40801 7.59685 7.52505C7.00341 7.64209 6.3883 7.58202 5.82929 7.35244C5.27029 7.12285 4.7925 6.73406 4.45634 6.23523C4.12018 5.7364 3.94076 5.14994 3.94076 4.55C3.94076 3.74551 4.26308 2.97397 4.8368 2.40511C5.41052 1.83625 6.18866 1.51667 7.00002 1.51667Z" fill="#262B37"/>
<path d="M6.99954 10.6167C5.17459 10.6187 3.42497 11.3384 2.13453 12.6179C0.844092 13.8974 0.118235 15.6322 0.116211 17.4417C0.116211 17.6428 0.196789 17.8357 0.34022 17.9779C0.483651 18.1201 0.678184 18.2 0.881026 18.2C1.08387 18.2 1.2784 18.1201 1.42183 17.9779C1.56526 17.8357 1.64584 17.6428 1.64584 17.4417C1.64584 16.0338 2.20989 14.6836 3.2139 13.6881C4.21792 12.6926 5.57965 12.1334 6.99954 12.1334C8.41944 12.1334 9.78117 12.6926 10.7852 13.6881C11.7892 14.6836 12.3532 16.0338 12.3532 17.4417C12.3532 17.6428 12.4338 17.8357 12.5773 17.9779C12.7207 18.1201 12.9152 18.2 13.1181 18.2C13.3209 18.2 13.5154 18.1201 13.6589 17.9779C13.8023 17.8357 13.8829 17.6428 13.8829 17.4417C13.8809 15.6322 13.155 13.8974 11.8646 12.6179C10.5741 11.3384 8.8245 10.6187 6.99954 10.6167Z" fill="#262B37"/>
</g>
<defs>
<clipPath id="clip0_1482_4564">
<rect width="14" height="18.2" fill="white"/>
</clipPath>
</defs>
</svg>
