<svg width="24" height="16" viewBox="0 0 24 16" fill="none" xmlns="http://www.w3.org/2000/svg">
<path d="M13.916 15H10.4785L9.48242 11.8848H4.50195L3.51562 15H0.0976562L5.19531 0.996094H8.93555L13.916 15ZM8.75977 9.46289L7.25586 4.75586C7.14518 4.4043 7.06706 3.98438 7.02148 3.49609H6.94336C6.91081 3.90625 6.82943 4.31315 6.69922 4.7168L5.17578 9.46289H8.75977ZM23.6816 15H20.7617V13.5645H20.7227C20.0521 14.6842 19.0592 15.2441 17.7441 15.2441C16.7741 15.2441 16.0091 14.9707 15.4492 14.4238C14.8958 13.8704 14.6191 13.1348 14.6191 12.2168C14.6191 10.2767 15.7682 9.1569 18.0664 8.85742L20.7812 8.49609C20.7812 7.40234 20.1888 6.85547 19.0039 6.85547C17.8125 6.85547 16.6797 7.21029 15.6055 7.91992V5.5957C16.0352 5.37435 16.6211 5.17904 17.3633 5.00977C18.112 4.84049 18.7923 4.75586 19.4043 4.75586C22.2559 4.75586 23.6816 6.17839 23.6816 9.02344V15ZM20.7812 10.9375V10.2637L18.9648 10.498C17.9622 10.6283 17.4609 11.0807 17.4609 11.8555C17.4609 12.207 17.5814 12.4967 17.8223 12.7246C18.0697 12.946 18.4017 13.0566 18.8184 13.0566C19.3978 13.0566 19.8698 12.8581 20.2344 12.4609C20.599 12.0573 20.7812 11.5495 20.7812 10.9375Z" fill="white"/>
</svg>
