<svg width="26" height="26" viewBox="0 0 26 26" fill="none" xmlns="http://www.w3.org/2000/svg">
<path d="M12.9998 16.1762C14.7542 16.1762 16.1763 14.754 16.1763 12.9997C16.1763 11.2454 14.7542 9.82324 12.9998 9.82324C11.2455 9.82324 9.82336 11.2454 9.82336 12.9997C9.82336 14.754 11.2455 16.1762 12.9998 16.1762Z" fill="white"/>
<path d="M21.4704 4.52927H18.114L16.801 3.09986C16.4093 2.66574 15.8375 2.41162 15.2446 2.41162H10.7552C10.1622 2.41162 9.59044 2.66574 9.18809 3.09986L7.88574 4.52927H4.52927C3.36456 4.52927 2.41162 5.48221 2.41162 6.64692V19.3528C2.41162 20.5175 3.36456 21.4704 4.52927 21.4704H21.4704C22.6352 21.4704 23.5881 20.5175 23.5881 19.3528V6.64692C23.5881 5.48221 22.6352 4.52927 21.4704 4.52927ZM12.9999 18.294C10.0775 18.294 7.70574 15.9222 7.70574 12.9999C7.70574 10.0775 10.0775 7.70574 12.9999 7.70574C15.9222 7.70574 18.294 10.0775 18.294 12.9999C18.294 15.9222 15.9222 18.294 12.9999 18.294Z" fill="white"/>
</svg>
