<svg width="32" height="32" viewBox="0 0 32 32" fill="none" xmlns="http://www.w3.org/2000/svg">
<path d="M7.83329 3.16978H19.8333C20.5405 3.16978 21.2188 3.45073 21.7189 3.95083C22.219 4.45092 22.5 5.1292 22.5 5.83644V8.50311L21 8.49986V4.99986H7V27.9999H21V24.5031H22.5V27.1698C22.5 27.877 22.219 28.5553 21.7189 29.0554C21.2188 29.5555 20.5405 29.8364 19.8333 29.8364H7.83329C7.12605 29.8364 6.44777 29.5555 5.94767 29.0554C5.44758 28.5553 5.16663 27.877 5.16663 27.1698V5.83644C5.16663 5.1292 5.44758 4.45092 5.94767 3.95083C6.44777 3.45073 7.12605 3.16978 7.83329 3.16978Z" fill="black"/>
<path d="M20.4533 21.4533L22.3333 23.3333L29 16.6667L22.3333 10L20.4533 11.88L23.8933 15.3333H11V18H23.8933L20.4533 21.4533Z" fill="black"/>
</svg>
